<svg id="visual" viewBox="0 0 900 600" width="900" height="600" xmlns="http://www.w3.org/2000/svg" xmlns:xlink="http://www.w3.org/1999/xlink" version="1.1"><rect x="0" y="0" width="900" height="600" fill="#002233"></rect><path d="M0 378L21.5 391.7C43 405.3 86 432.7 128.8 441.5C171.7 450.3 214.3 440.7 257.2 434.5C300 428.3 343 425.7 385.8 427C428.7 428.3 471.3 433.7 514.2 445.8C557 458 600 477 642.8 490C685.7 503 728.3 510 771.2 509.5C814 509 857 501 878.5 497L900 493L900 601L878.5 601C857 601 814 601 771.2 601C728.3 601 685.7 601 642.8 601C600 601 557 601 514.2 601C471.3 601 428.7 601 385.8 601C343 601 300 601 257.2 601C214.3 601 171.7 601 128.8 601C86 601 43 601 21.5 601L0 601Z" fill="#0066FF" stroke-linecap="round" stroke-linejoin="miter"></path></svg>